<svg width="39" height="39" viewBox="0 0 39 39" fill="none" xmlns="http://www.w3.org/2000/svg">
<g clip-path="url(#clip0)">
<path d="M35.459 9.01493H27.311V1.25293C27.311 0.90793 27.031 0.62793 26.686 0.62793H11.446C11.101 0.62793 10.821 0.90793 10.821 1.25293V9.01493H2.67399C2.34899 9.01493 2.07499 9.26893 2.05099 9.59293L0.00199191 36.8339C-0.0110081 37.0069 0.0489919 37.1789 0.165992 37.3039C0.282992 37.4319 0.449992 37.5049 0.624992 37.5049H37.509C37.684 37.5049 37.851 37.4319 37.967 37.3049C38.085 37.1789 38.145 37.0069 38.132 36.8329L36.083 9.59293C36.059 9.26893 35.785 9.01493 35.459 9.01493ZM26.686 12.9759C27.002 12.9759 27.259 13.2319 27.259 13.5459C27.259 13.8609 27.002 14.1179 26.686 14.1179C26.37 14.1179 26.113 13.8609 26.113 13.5459C26.113 13.2319 26.37 12.9759 26.686 12.9759ZM12.071 1.87893H26.061V9.01593H12.071V1.87893ZM11.446 12.9759C11.762 12.9759 12.019 13.2319 12.019 13.5459C12.019 13.8609 11.762 14.1179 11.446 14.1179C11.13 14.1179 10.873 13.8609 10.873 13.5459C10.873 13.2319 11.13 12.9759 11.446 12.9759ZM1.29799 36.2559L3.25299 10.2659H10.821V11.8439C10.124 12.0999 9.62299 12.7639 9.62299 13.5469C9.62299 14.5519 10.441 15.3689 11.446 15.3689C12.451 15.3689 13.269 14.5519 13.269 13.5469C13.269 12.7639 12.768 12.0999 12.071 11.8439V10.2659H26.061V11.8439C25.364 12.0999 24.863 12.7639 24.863 13.5469C24.863 14.5519 25.681 15.3689 26.686 15.3689C27.691 15.3689 28.509 14.5519 28.509 13.5469C28.509 12.7639 28.008 12.0999 27.311 11.8439V10.2659H34.88L36.835 36.2559H1.29799Z" fill="#757273"/>
</g>
<defs>
<clipPath id="clip0">
<rect width="38.133" height="38.133" fill="white"/>
</clipPath>
</defs>
</svg>
