<svg width="18" height="18" viewBox="0 0 40 40" fill="none" xmlns="http://www.w3.org/2000/svg">
<g clip-path="url(#clip0)">
<path d="M1.95349 39.9998C1.56715 39.9998 1.18946 39.8853 0.868201 39.6707C0.546945 39.4561 0.296551 39.1511 0.148694 38.7941C0.000836654 38.4372 -0.0378423 38.0444 0.0375496 37.6655C0.112941 37.2866 0.299017 36.9385 0.57224 36.6654L36.666 0.571644C37.0323 0.205314 37.5292 -0.000488281 38.0472 -0.000488281C38.5653 -0.000488281 39.0622 0.205314 39.4285 0.571644C39.7948 0.937974 40.0006 1.43482 40.0006 1.95289C40.0006 2.47096 39.7948 2.96781 39.4285 3.33414L3.33474 39.4279C3.15352 39.6095 2.93821 39.7535 2.70117 39.8516C2.46413 39.9498 2.21004 40.0001 1.95349 39.9998Z" fill="#757273"/>
<path d="M38.0471 39.9998C37.7906 40.0001 37.5365 39.9498 37.2995 39.8516C37.0624 39.7535 36.8471 39.6095 36.6659 39.4279L0.572133 3.33414C0.205802 2.96781 0 2.47096 0 1.95289C0 1.43482 0.205802 0.937974 0.572133 0.571644C0.938463 0.205314 1.43531 -0.000488281 1.95338 -0.000488281C2.47145 -0.000488281 2.9683 0.205314 3.33463 0.571644L39.4284 36.6654C39.7016 36.9385 39.8877 37.2866 39.9631 37.6655C40.0385 38.0444 39.9998 38.4372 39.8519 38.7941C39.7041 39.1511 39.4537 39.4561 39.1324 39.6707C38.8112 39.8853 38.4335 39.9998 38.0471 39.9998V39.9998Z" fill="#757273"/>
</g>
<defs>
<clipPath id="clip0">
<rect width="40" height="40" fill="white"/>
</clipPath>
</defs>
</svg>
