<svg width="48" height="48" viewBox="0 0 512 512" fill="none" xmlns="http://www.w3.org/2000/svg">
<path fill-rule="evenodd" clip-rule="evenodd" d="M211.208 368C242.112 368 267.208 393.096 267.208 424C267.208 454.904 242.112 480 211.208 480C180.304 480 155.208 454.904 155.208 424C155.208 393.096 180.304 368 211.208 368ZM355.208 368C386.112 368 411.208 393.096 411.208 424C411.208 454.904 386.112 480 355.208 480C324.304 480 299.208 454.904 299.208 424C299.208 393.096 324.304 368 355.208 368ZM211.208 384C233.288 384 251.208 401.92 251.208 424C251.208 446.08 233.288 464 211.208 464C189.128 464 171.208 446.08 171.208 424C171.208 401.92 189.128 384 211.208 384ZM355.208 384C377.288 384 395.208 401.92 395.208 424C395.208 446.08 377.288 464 355.208 464C333.128 464 315.208 446.08 315.208 424C315.208 401.92 333.128 384 355.208 384ZM131.208 168H452.792L417.888 360H235.208V344H404.528L433.624 184H132.792L161.888 344H187.208V360H148.528L115.208 168V112H59.208V96H131.208V168ZM219.208 344H203.208V360H219.208V344ZM281.832 250L322.8 208L336.464 222L295.488 264L336.464 306L322.8 320L281.832 278L240.864 320L227.208 306L268.176 264L227.208 222L240.864 208L281.832 250Z" fill="#757273"/>
</svg>
