<svg width="18" height="18" viewBox="0 0 24 24" fill="none" xmlns="http://www.w3.org/2000/svg">
<path d="M12 0C5.38373 0 0 5.3828 0 12C0 18.6172 5.38373 24 12 24C18.6172 24 24 18.6172 24 12C24 5.3828 18.6163 0 12 0ZM12 22.141C6.40805 22.141 1.85902 17.592 1.85902 12C1.85902 6.40805 6.40805 1.85902 12 1.85902C17.592 1.85902 22.141 6.40805 22.141 12C22.141 17.592 17.592 22.141 12 22.141Z" fill="#757273"/>
<path d="M16.6476 10.9868H7.35244C6.83935 10.9868 6.42291 11.4033 6.42291 11.9164C6.42291 12.4295 6.83935 12.8459 7.35244 12.8459H16.6476C17.1607 12.8459 17.5771 12.4295 17.5771 11.9164C17.5771 11.4033 17.1607 10.9868 16.6476 10.9868Z" fill="#757273"/>
</svg>
